<mxfile host="app.diagrams.net" modified="2022-02-23T02:50:15.555Z" agent="5.0 (Windows NT 10.0; Win64; x64) AppleWebKit/537.36 (KHTML, like Gecko) Chrome/98.0.4758.102 Safari/537.36 Edg/98.0.1108.56" etag="PW4ot9shgYx7TnSu21xU" version="16.6.2" type="github">
  <diagram id="7GoxCOIOym6zpVBM_vTU" name="Page-1">
    <mxGraphModel dx="785" dy="512" grid="1" gridSize="10" guides="1" tooltips="1" connect="1" arrows="1" fold="1" page="1" pageScale="1" pageWidth="827" pageHeight="1169" math="0" shadow="0">
      <root>
        <mxCell id="0" />
        <mxCell id="1" parent="0" />
        <mxCell id="oF_tWznHUJOEMXjSa9XG-13" style="edgeStyle=orthogonalEdgeStyle;rounded=0;orthogonalLoop=1;jettySize=auto;html=1;exitX=0.5;exitY=1;exitDx=0;exitDy=0;" edge="1" parent="1" source="YElA1xFFUWOJk3vGFxjY-1" target="oF_tWznHUJOEMXjSa9XG-12">
          <mxGeometry relative="1" as="geometry" />
        </mxCell>
        <mxCell id="YElA1xFFUWOJk3vGFxjY-1" value="我方出招" style="rounded=0;whiteSpace=wrap;html=1;" parent="1" vertex="1">
          <mxGeometry x="30" y="190" width="120" height="60" as="geometry" />
        </mxCell>
        <mxCell id="YElA1xFFUWOJk3vGFxjY-2" value="回合制逻辑" style="text;html=1;strokeColor=none;fillColor=none;align=center;verticalAlign=middle;whiteSpace=wrap;rounded=0;" parent="1" vertex="1">
          <mxGeometry x="30" y="90" width="120" height="50" as="geometry" />
        </mxCell>
        <mxCell id="oF_tWznHUJOEMXjSa9XG-1" value="" style="endArrow=none;html=1;rounded=0;entryX=0.5;entryY=1;entryDx=0;entryDy=0;exitX=0.5;exitY=0;exitDx=0;exitDy=0;" edge="1" parent="1" source="YElA1xFFUWOJk3vGFxjY-1" target="YElA1xFFUWOJk3vGFxjY-2">
          <mxGeometry width="50" height="50" relative="1" as="geometry">
            <mxPoint x="210" y="380" as="sourcePoint" />
            <mxPoint x="260" y="330" as="targetPoint" />
          </mxGeometry>
        </mxCell>
        <mxCell id="oF_tWznHUJOEMXjSa9XG-7" style="edgeStyle=orthogonalEdgeStyle;rounded=0;orthogonalLoop=1;jettySize=auto;html=1;exitX=0.5;exitY=1;exitDx=0;exitDy=0;entryX=0.5;entryY=0;entryDx=0;entryDy=0;entryPerimeter=0;" edge="1" parent="1" source="oF_tWznHUJOEMXjSa9XG-3" target="oF_tWznHUJOEMXjSa9XG-5">
          <mxGeometry relative="1" as="geometry" />
        </mxCell>
        <mxCell id="oF_tWznHUJOEMXjSa9XG-3" value="可复用函数" style="text;html=1;strokeColor=none;fillColor=none;align=center;verticalAlign=middle;whiteSpace=wrap;rounded=0;" vertex="1" parent="1">
          <mxGeometry x="612.5" y="70" width="60" height="30" as="geometry" />
        </mxCell>
        <mxCell id="oF_tWznHUJOEMXjSa9XG-11" value="" style="edgeStyle=orthogonalEdgeStyle;rounded=0;orthogonalLoop=1;jettySize=auto;html=1;" edge="1" parent="1" source="oF_tWznHUJOEMXjSa9XG-5" target="oF_tWznHUJOEMXjSa9XG-10">
          <mxGeometry relative="1" as="geometry" />
        </mxCell>
        <mxCell id="oF_tWznHUJOEMXjSa9XG-16" value="" style="edgeStyle=orthogonalEdgeStyle;rounded=0;orthogonalLoop=1;jettySize=auto;html=1;entryX=0.5;entryY=0;entryDx=0;entryDy=0;" edge="1" parent="1" source="oF_tWznHUJOEMXjSa9XG-5" target="oF_tWznHUJOEMXjSa9XG-14">
          <mxGeometry relative="1" as="geometry">
            <mxPoint x="642.5" y="230" as="targetPoint" />
          </mxGeometry>
        </mxCell>
        <mxCell id="oF_tWznHUJOEMXjSa9XG-5" value="&lt;span&gt;生成1-6的随机数&lt;/span&gt;" style="html=1;outlineConnect=0;whiteSpace=wrap;fillColor=#99ffff;shape=mxgraph.archimate3.application;appType=func;archiType=rounded;" vertex="1" parent="1">
          <mxGeometry x="570" y="150" width="145" height="50" as="geometry" />
        </mxCell>
        <mxCell id="oF_tWznHUJOEMXjSa9XG-10" value="函数名：出招顺序" style="whiteSpace=wrap;html=1;fillColor=#99ffff;" vertex="1" parent="1">
          <mxGeometry x="414" y="145" width="120" height="60" as="geometry" />
        </mxCell>
        <mxCell id="oF_tWznHUJOEMXjSa9XG-32" style="edgeStyle=orthogonalEdgeStyle;rounded=0;orthogonalLoop=1;jettySize=auto;html=1;exitX=1;exitY=0.6;exitDx=0;exitDy=0;exitPerimeter=0;" edge="1" parent="1" source="oF_tWznHUJOEMXjSa9XG-12" target="oF_tWznHUJOEMXjSa9XG-31">
          <mxGeometry relative="1" as="geometry" />
        </mxCell>
        <mxCell id="oF_tWznHUJOEMXjSa9XG-12" value="执行出招顺序（6次）" style="html=1;outlineConnect=0;whiteSpace=wrap;fillColor=#99ffff;shape=mxgraph.archimate3.function;" vertex="1" parent="1">
          <mxGeometry x="52.5" y="300" width="75" height="75" as="geometry" />
        </mxCell>
        <mxCell id="oF_tWznHUJOEMXjSa9XG-23" style="edgeStyle=orthogonalEdgeStyle;rounded=0;orthogonalLoop=1;jettySize=auto;html=1;exitX=0;exitY=1;exitDx=0;exitDy=0;entryX=0.5;entryY=0;entryDx=0;entryDy=0;" edge="1" parent="1" source="oF_tWznHUJOEMXjSa9XG-14" target="oF_tWznHUJOEMXjSa9XG-17">
          <mxGeometry relative="1" as="geometry">
            <mxPoint x="480" y="509.9999999999999" as="targetPoint" />
            <Array as="points">
              <mxPoint x="588" y="410" />
              <mxPoint x="474" y="410" />
            </Array>
          </mxGeometry>
        </mxCell>
        <mxCell id="oF_tWznHUJOEMXjSa9XG-24" style="edgeStyle=orthogonalEdgeStyle;rounded=0;orthogonalLoop=1;jettySize=auto;html=1;exitX=1;exitY=1;exitDx=0;exitDy=0;entryX=1;entryY=0.5;entryDx=0;entryDy=0;entryPerimeter=0;" edge="1" parent="1" source="oF_tWznHUJOEMXjSa9XG-14" target="oF_tWznHUJOEMXjSa9XG-5">
          <mxGeometry relative="1" as="geometry">
            <mxPoint x="930" y="180" as="targetPoint" />
            <Array as="points">
              <mxPoint x="930" y="403" />
              <mxPoint x="930" y="175" />
            </Array>
          </mxGeometry>
        </mxCell>
        <mxCell id="oF_tWznHUJOEMXjSa9XG-14" value="判断临时出招顺序数组里时候已经存在生成过的随机数" style="rhombus;whiteSpace=wrap;html=1;" vertex="1" parent="1">
          <mxGeometry x="532.5" y="230" width="220" height="230" as="geometry" />
        </mxCell>
        <mxCell id="oF_tWznHUJOEMXjSa9XG-30" value="" style="edgeStyle=orthogonalEdgeStyle;rounded=0;orthogonalLoop=1;jettySize=auto;html=1;" edge="1" parent="1" source="oF_tWznHUJOEMXjSa9XG-17" target="oF_tWznHUJOEMXjSa9XG-29">
          <mxGeometry relative="1" as="geometry" />
        </mxCell>
        <mxCell id="oF_tWznHUJOEMXjSa9XG-17" value="将生成的随机数存入临时数组（我方出招顺序）" style="whiteSpace=wrap;html=1;fillColor=#99ffff;" vertex="1" parent="1">
          <mxGeometry x="414" y="430" width="120" height="90" as="geometry" />
        </mxCell>
        <mxCell id="oF_tWznHUJOEMXjSa9XG-19" value="用于保存出招顺序&lt;br&gt;如[1,3,2,4,5,6]" style="text;html=1;strokeColor=none;fillColor=none;align=center;verticalAlign=middle;whiteSpace=wrap;rounded=0;" vertex="1" parent="1">
          <mxGeometry x="230" y="445" width="140" height="60" as="geometry" />
        </mxCell>
        <mxCell id="oF_tWznHUJOEMXjSa9XG-22" style="edgeStyle=orthogonalEdgeStyle;rounded=0;orthogonalLoop=1;jettySize=auto;html=1;exitX=1;exitY=0.5;exitDx=0;exitDy=0;entryX=0;entryY=0;entryDx=0;entryDy=0;" edge="1" parent="1" source="oF_tWznHUJOEMXjSa9XG-21" target="oF_tWznHUJOEMXjSa9XG-14">
          <mxGeometry relative="1" as="geometry" />
        </mxCell>
        <mxCell id="oF_tWznHUJOEMXjSa9XG-21" value="避免出现重复出招的问题" style="text;html=1;strokeColor=none;fillColor=none;align=center;verticalAlign=middle;whiteSpace=wrap;rounded=0;" vertex="1" parent="1">
          <mxGeometry x="430" y="270" width="60" height="30" as="geometry" />
        </mxCell>
        <mxCell id="oF_tWznHUJOEMXjSa9XG-26" value="不存在" style="text;html=1;strokeColor=none;fillColor=none;align=center;verticalAlign=middle;whiteSpace=wrap;rounded=0;" vertex="1" parent="1">
          <mxGeometry x="480" y="360" width="60" height="30" as="geometry" />
        </mxCell>
        <mxCell id="oF_tWznHUJOEMXjSa9XG-27" value="存在，重新生成避免重复" style="text;html=1;strokeColor=none;fillColor=none;align=center;verticalAlign=middle;whiteSpace=wrap;rounded=0;" vertex="1" parent="1">
          <mxGeometry x="790" y="345" width="60" height="30" as="geometry" />
        </mxCell>
        <mxCell id="oF_tWznHUJOEMXjSa9XG-28" value="" style="endArrow=none;html=1;rounded=0;exitX=1;exitY=0.5;exitDx=0;exitDy=0;" edge="1" parent="1" source="oF_tWznHUJOEMXjSa9XG-19" target="oF_tWznHUJOEMXjSa9XG-17">
          <mxGeometry width="50" height="50" relative="1" as="geometry">
            <mxPoint x="350" y="340" as="sourcePoint" />
            <mxPoint x="400" y="290" as="targetPoint" />
          </mxGeometry>
        </mxCell>
        <mxCell id="oF_tWznHUJOEMXjSa9XG-29" value="返回出招顺序" style="whiteSpace=wrap;html=1;fillColor=#99ffff;" vertex="1" parent="1">
          <mxGeometry x="414" y="615" width="120" height="60" as="geometry" />
        </mxCell>
        <mxCell id="oF_tWznHUJOEMXjSa9XG-31" value="一次性计算完所有的我们出招顺序" style="text;html=1;strokeColor=none;fillColor=none;align=center;verticalAlign=middle;whiteSpace=wrap;rounded=0;" vertex="1" parent="1">
          <mxGeometry x="170" y="305" width="80" height="80" as="geometry" />
        </mxCell>
      </root>
    </mxGraphModel>
  </diagram>
</mxfile>
